<?xml version="1.0" encoding="UTF-8" standalone="no"?>
<!-- Created with Inkscape (http://www.inkscape.org/) -->

<svg
   width="155mm"
   height="31mm"
   viewBox="0 0 165 33"
   version="1.1"
   id="svg1"
   xmlns="http://www.w3.org/2000/svg"
   xmlns:svg="http://www.w3.org/2000/svg"
   >
  <defs
     id="defs1">
    <linearGradient
       id="swatch13">
      <stop
         style="stop-color:#000000;stop-opacity:1;"
         offset="0"
         id="stop14" />
    </linearGradient>
    <rect
       x="222.2948"
       y="334.13254"
       width="550.90448"
       height="115.97989"
       id="rect8" />
  </defs>
  <g
     id="layer1"
     transform="translate(-12.343171,-87.166349)">
    <circle
       style="fill:none;stroke:#B0436E;stroke-width:2.92555;stroke-linejoin:miter;stroke-dasharray:none;stroke-dashoffset:0;stroke-opacity:1"
       id="path1"
       cx="25.995745"
       cy="104.33114"
       r="12.189798" />
    <path
       d="m 25.953557,97.641958 a 6.7824628,6.7824628 0 0 0 -6.782532,6.782532 6.7824628,6.7824628 0 0 0 6.782532,6.78254 6.7824628,6.7824628 0 0 0 6.782532,-6.78254 6.7824628,6.7824628 0 0 0 -6.782532,-6.782532 z"
       style="fill:none;stroke:#B0436E;stroke-width:1.95036;stroke-dasharray:15.6029, 1.95036;stroke-dashoffset:0;stroke-opacity:1"
       id="path6" />
    <path
       style="fill:none;fill-opacity:1;stroke:#B0436E;stroke-width:3.3276;stroke-linejoin:miter;stroke-dasharray:none;stroke-dashoffset:0;stroke-opacity:1"
       id="path7"
       d="m 138.45389,52.605168 -3.72342,-6.247048 -6.50536,-3.251107 6.24705,-3.723419 3.2511,-6.505364 3.72342,6.247048 6.50537,3.251107 -6.24705,3.72342 z"
       transform="matrix(0.30738567,0,0,0.30738567,-3.3048275,78.125151)" />
    <text
       xml:space="preserve"
       transform="matrix(0.30162357,0,0,0.30162357,-23.896443,-10.887076)"
       id="text8"
       style="font-style:normal;font-variant:normal;font-weight:normal;font-stretch:normal;font-size:85.3333px;font-family:'Segoe UI Emoji';-inkscape-font-specification:'Segoe UI Emoji';letter-spacing:-2.42791px;word-spacing:-0.194233px;white-space:pre;shape-inside:url(#rect8);display:inline;fill:#eeeef0;fill-opacity:1;stroke:none;stroke-width:3.77953;stroke-linejoin:miter;stroke-dasharray:none;stroke-dashoffset:0;stroke-opacity:1"><tspan
         x="222.29492"
         y="411.92397"
         id="tspan2"><tspan
           style="font-family:'Franklin Gothic Medium';-inkscape-font-specification:'Franklin Gothic Medium, '"
           id="tspan1">MosaicMind</tspan></tspan></text>
  </g>
</svg>
